PathFileType	4	(X/Y/Z)	29_2_26_p1_0-414_filt_butterworth.trc
DataRate	CameraRate	NumFrames	NumMarkers	Units	OrigDataRate	OrigDataStartFrame	OrigNumFrames
59.0	59.0	4	27	m	59.0	0	414
Frame#	Time	RHip			RKnee			RAnkle			RBigToe			RSmallToe			RHeel			LHip			LKnee			LAnkle			LBigToe			LSmallToe			LHeel			Neck			Head			Nose			RShoulder			RElbow			RWrist			RThumb			RIndex			RPinky			LShoulder			LElbow			LWrist			LThumb			LIndex			LPinky			
		X1	Y1	Z1	X2	Y2	Z2	X3	Y3	Z3	X4	Y4	Z4	X5	Y5	Z5	X6	Y6	Z6	X7	Y7	Z7	X8	Y8	Z8	X9	Y9	Z9	X10	Y10	Z10	X11	Y11	Z11	X12	Y12	Z12	X13	Y13	Z13	X14	Y14	Z14	X15	Y15	Z15	X16	Y16	Z16	X17	Y17	Z17	X18	Y18	Z18	X19	Y19	Z19	X20	Y20	Z20	X21	Y21	Z21	X22	Y22	Z22	X23	Y23	Z23	X24	Y24	Z24	X25	Y25	Z25	X26	Y26	Z26	X27	Y27	Z27	
0	0.0	0.3621666677760861	0.7774501133251046	0.8142112296885413	0.3356249682260513	0.3241843644748823	0.8105588292875339	0.304926563086081	-0.10309133243412605	0.8340232204055651	0.28832695359780847	-0.0905527201986461	0.6416310440404889	0.3480117025097595	-0.07212250495813738	0.6437042969664453	0.27597756298515114	-0.1752632134692693	0.9032238240360652	0.13591395301422118	0.7704693424531889	0.8046126614405217	0.11613422621221056	0.3402060079298895	0.7848233395614588	0.10375467638753351	-0.0769400449758155	0.8010258592424999	0.12702363941860412	-0.05531166677299765	0.6112745182985789	0.06391915319620473	-0.06460107860540501	0.6536434406718759	0.12137818112356588	-0.1375567469832513	0.862242267008429	0.2881298617678232	1.376339583925502	0.8298817132848528	0.3096795234565542	1.6270455987398247	0.7903831765204485	0.2908010328253977	1.5251162673910381	0.6916778884289745	0.426700911106011	1.2614697597410225	0.7896070607644118	0.4575258357616864	1.0075053674726144	0.7416957520621705	0.31568241316941303	0.8450225246366992	0.6194890046095636	0.2327345093400271	0.7922371050053971	0.6044214646800997	0.204086557351676	0.7417778000739801	0.6787367419822525	0.20809528041272787	0.7339866499530528	0.6700260927271882	0.12815055139087955	1.267324519116309	0.8292168303646512	0.08450466642441772	1.0144274974885543	0.7311060177385388	0.18092290055818858	0.8711862699219195	0.6183715272012129	0.2607807168296541	0.8211251196901902	0.598790816152878	0.2605783894876851	0.7928135689525001	0.5963573979313839	0.235759534473657	0.7474887219706194	0.6347736067091818	
1	0.0169491525423728	0.362410930900757	0.7803094463296061	0.8093142398194582	0.33620901210100174	0.3237705176220269	0.8110410287608685	0.30674579886836223	-0.10137331272704685	0.8315608782603915	0.29131463417473574	-0.08349872600125677	0.6345291566441822	0.350860308332232	-0.06947894151767584	0.64302667739389	0.2752428978890938	-0.17751478420605504	0.9055287663250907	0.13660462351266567	0.7709796009749322	0.8040427996034122	0.11637231047360345	0.3403184984906088	0.7848995197713522	0.10371301086602028	-0.07701928354791002	0.8010824826971049	0.12685850219447767	-0.05240570301847104	0.6102706097385574	0.06447466274120991	-0.06389413722213162	0.6526468190408791	0.12092908939917904	-0.13826576886352537	0.8619236105025257	0.2883391167422233	1.3760845793560494	0.8294069881480362	0.3114053649524914	1.6301661888677677	0.7928010167397108	0.290535432994198	1.5251474882935705	0.6916493160412243	0.4262866284671893	1.2635000461694503	0.7904180583060226	0.45906782068611557	1.007014165410811	0.7479090625463932	0.31318074450941674	0.8412241021002257	0.626130362466	0.23195637998220428	0.7867055389572248	0.6153630751624113	0.204492835391738	0.742208164058716	0.6777473912545565	0.20778066970334239	0.7327156586381226	0.6702585876250916	0.13022697513943743	1.2671518805783255	0.8300423326709299	0.08449545743086821	1.0139100254668103	0.7309676594812754	0.1810129488610738	0.8710915275974058	0.6183838091357158	0.2627786961161783	0.8163086433445503	0.6003136499224055	0.26309376758012076	0.7924431444216831	0.5971457100963325	0.2361976954026315	0.7481058479545173	0.6342759301220772	
2	0.0338983050847457	0.3626164450726083	0.7827123564632403	0.8052052571893396	0.33667379111876927	0.32350391662100564	0.8113202880766002	0.3083281916102823	-0.09993643964670312	0.8295024420499522	0.2932413632605343	-0.07888483023797016	0.6299938736992664	0.3524821141903698	-0.06741350326123863	0.6412563790605681	0.2747883516479831	-0.17913654728577827	0.9069696945582763	0.13726395949368592	0.7715216865947686	0.8033664104800178	0.1165882383830188	0.34055679048558396	0.7849233725293866	0.10368035098380964	-0.07707939892432225	0.8011269537198852	0.12677542033132694	-0.05059590873838141	0.609673426776562	0.06468252275758092	-0.06368244997093599	0.6523251528288537	0.12057580155597206	-0.13889007988017743	0.86170899197849	0.28847197700259614	1.376016393491437	0.8291020907080502	0.3129703459216918	1.6322335895755946	0.7938348688639871	0.29049738211166054	1.5251435335904884	0.6917366433294823	0.42600853691224944	1.2649531531326321	0.7908277834818545	0.46006999940369037	1.0067980365970102	0.7518710426316023	0.3116419808529878	0.8386010507397694	0.6305364854252373	0.23136216809284096	0.7826946479956481	0.6227894434858112	0.20461530794049163	0.7423672588717056	0.6775269006055604	0.20764120640463243	0.7315942854935414	0.670527774263195	0.1315498719275816	1.2670509607924791	0.8305695891934026	0.08451961328411421	1.013769015601826	0.7308976878266699	0.1810509906227261	0.8710068406944391	0.6184323899450241	0.2638314466464307	0.8133337440083475	0.6011220355530339	0.2644462616595573	0.7922551981647589	0.5975302389632673	0.23624580480474014	0.7482849083280547	0.634096516186001	
3	0.0508474576271186	0.3627860938713969	0.78469345580718	0.8018242129388425	0.3370295616131908	0.32337004805491754	0.8114197839761642	0.30968919786090093	-0.0987591541320077	0.8278169005244947	0.2943086370118573	-0.07626078444561203	0.6275375306086046	0.3531385095073675	-0.06584980929529215	0.6387587131102428	0.27458347632102925	-0.180191717554204	0.9076410488575121	0.13789121115141847	0.772086744382891	0.8025989548888719	0.11678228442151008	0.34090289169430743	0.7849006591308898	0.1036559280880321	-0.07712203149576186	0.8011601834249906	0.12675560735947777	-0.04966462840422052	0.6093954305894276	0.06464642886702567	-0.06381675996913	0.652472420065341	0.12030880780877137	-0.1394340670186604	0.861587110975552	0.2885437166516408	1.3760865681468206	0.828934504643291	0.31434998190139724	1.6334332785826615	0.7938102319062935	0.29064098653382753	1.5251137851797156	0.6919091800429104	0.4258888359731445	1.2658754816427902	0.7909308339457056	0.4606330467551378	1.006766262632747	0.7540043207165408	0.3108824958910439	0.8369701662865883	0.6331530047817376	0.2309314938258534	0.7799735631741124	0.627311883113035	0.20452052308844665	0.7422880518060995	0.6778725279909333	0.2076803724125511	0.730625424369443	0.670828790170411	0.132263235344216	1.2670061973360152	0.8308544186198903	0.0845722377648152	1.0139360771496748	0.7308833728668082	0.18104832668987844	0.8709333656684852	0.6185063259867842	0.26412781893492426	0.8118395263118872	0.6013609188522404	0.26486706610319477	0.7922147441700704	0.5975929194014469	0.2360369089078442	0.7481350386596379	0.634163774523162	
